PathFileType	4	(X/Y/Z)	53_1_30_p1_0-305_filt_butterworth.trc
DataRate	CameraRate	NumFrames	NumMarkers	Units	OrigDataRate	OrigDataStartFrame	OrigNumFrames
60.0	60.0	6	27	m	60.0	266	305
Frame#	Time	RHip			RKnee			RAnkle			RBigToe			RSmallToe			RHeel			LHip			LKnee			LAnkle			LBigToe			LSmallToe			LHeel			Neck			Head			Nose			RShoulder			RElbow			RWrist			RThumb			RIndex			RPinky			LShoulder			LElbow			LWrist			LThumb			LIndex			LPinky			
		X1	Y1	Z1	X2	Y2	Z2	X3	Y3	Z3	X4	Y4	Z4	X5	Y5	Z5	X6	Y6	Z6	X7	Y7	Z7	X8	Y8	Z8	X9	Y9	Z9	X10	Y10	Z10	X11	Y11	Z11	X12	Y12	Z12	X13	Y13	Z13	X14	Y14	Z14	X15	Y15	Z15	X16	Y16	Z16	X17	Y17	Z17	X18	Y18	Z18	X19	Y19	Z19	X20	Y20	Z20	X21	Y21	Z21	X22	Y22	Z22	X23	Y23	Z23	X24	Y24	Z24	X25	Y25	Z25	X26	Y26	Z26	X27	Y27	Z27	
266	4.433333333333334	0.4069594046184662	0.6076382276399697	0.6727523447405002	0.39897887880963717	0.7868316828963432	1.1421663056485762	0.35022704805150984	0.8688470136741479	1.532810558719984	0.31314036116722954	0.7256547459648381	1.5772946702242818	0.36346236780072383	0.7453872861253853	1.582312214265645	0.32701678940825823	0.976206925296035	1.6171173134450312	0.20936655710793256	0.6084362266187683	0.6576084249447041	0.15866877527079956	0.7722324770916908	1.1201072808823547	0.1518692836949879	0.8968296551537487	1.5517015683643622	0.1699559557939622	0.7419148956585219	1.5753321967369105	0.10965879861787017	0.7622074509777412	1.565099640162718	0.17333262772117228	0.9307941642992985	1.5941142919784812	0.3122403353639464	0.5335450963718423	0.1747041617121715	0.3194149967898462	0.43743496220587824	-0.04612144004907596	0.3085345874406434	0.3728128486124528	0.07773680971615904	0.44950620260998675	0.5311214686567212	0.2445809708920411	0.49202304973502353	0.6358586328385046	0.5227130620528013	0.48460443556773564	0.5277337200504054	0.7817134516285151	0.41178773529354484	0.5357187073805452	0.8928015974344156	0.4312344527221989	0.5450047147600598	0.9088898501446858	0.48041681840525974	0.5689800824490139	0.9079332968543414	0.16298802878443738	0.6044747724400634	0.2422652398962079	0.12519041745130274	0.6018781619880555	0.5155309525677264	0.08328680144471165	0.61401360943483	0.7586675858628161	0.1039217782568904	0.6187162162914742	0.8605390120009354	0.08007702204348426	0.6226475713500152	0.9021331991696464	0.06499319655801487	0.6055812874878733	0.8613081982936112
267	4.45	0.40590218872813766	0.6045109797569971	0.6724367392038215	0.3984505898881868	0.7912949599366068	1.14086529274753	0.3500862153353915	0.870180233159198	1.5352738452096415	0.313208674556288	0.726291924345901	1.5772643961452735	0.3620332924090763	0.74531305331903	1.583596966882996	0.3286179740061026	0.970464524169868	1.615052553482816	0.20933948405959102	0.6083700331960888	0.6575186561342572	0.15797079726411806	0.7734354091226652	1.1180259637784429	0.15185949388661357	0.8967774484074759	1.5517104677801403	0.16889320076118242	0.7369028963898558	1.573134173668305	0.10964518831857265	0.7624362376814574	1.5651157562529714	0.17340068941995374	0.9312951901920115	1.5936783715004688	0.31223116838406106	0.5335359816430465	0.17471318431857913	0.31941926643839486	0.43741381477673474	-0.04612533423088503	0.30846977344318627	0.37308108083461483	0.07771352288360572	0.4495235783405613	0.5311404917180109	0.24467043523882098	0.49155352678177966	0.6286163565081506	0.5224598059968609	0.48457258390424657	0.5276860997510232	0.7830386061232818	0.4115523187922562	0.5354414941933996	0.8933405201500257	0.4309427454002062	0.5447703379609312	0.9101564787647954	0.479946900227147	0.5720509806150286	0.9089444799357289	0.16297876285742172	0.6044835118474653	0.24225753452693047	0.1240589227080674	0.6054150975985334	0.5157364119304944	0.08223680242185477	0.6137078435551282	0.7601875217844648	0.1018417262101074	0.6138279146707593	0.860103370132971	0.07864471924997901	0.6177444718095912	0.9031122547772645	0.062217672025627856	0.6045514677329564	0.8630285228269631
268	4.466666666666667	0.4044996664594762	0.6003223022439436	0.6719994781235629	0.39778104212719395	0.7928002420838995	1.139892691750764	0.34995122965991765	0.8713698299372674	1.5378807804171322	0.31319830046275665	0.7266412734360802	1.5771124333144402	0.36092408222321604	0.7451499849222089	1.584484452329904	0.3298455269753618	0.9664326183825085	1.6137717069163917	0.20931904741548116	0.6083295939737917	0.6575443568377979	0.15673656074487793	0.7773304374493656	1.1163001412788622	0.15184781070853298	0.8966908315211806	1.5517043767693246	0.16810693272140054	0.733133355975848	1.5717240963874526	0.10962435280911263	0.7625985718369459	1.565139136295136	0.17342124513108237	0.9313390510541156	1.5922171810972725	0.31222423275249617	0.533530924808626	0.1747279822071077	0.3193553213534425	0.43765824263597974	-0.04651447964113749	0.3084375756533331	0.3731973434224747	0.07770950806106916	0.4495369986454402	0.5311000921877086	0.2450563629972323	0.49028737242775544	0.6225077090357021	0.5221555032253258	0.48455669030170534	0.5278490922944594	0.7836803971455392	0.4109651993440747	0.5350866309408091	0.8942401923314559	0.43091052341988373	0.5475411457655713	0.9117713191190929	0.4789017062666977	0.5761860178926176	0.9095106761211265	0.16297508109419034	0.6044956406174399	0.24217754988724144	0.12355783079721663	0.6067377948121531	0.5158248408968726	0.08023105883911846	0.6133636079950465	0.7609807231657996	0.10053567880329595	0.6102198859448372	0.8596229418305058	0.0774451659630293	0.6144677738050296	0.9054192642171459	0.05963027012545237	0.6029826330154072	0.86538805866448
269	4.483333333333333	0.40341194929830015	0.597089699780463	0.6716575264273732	0.39702662830598956	0.7925318824840384	1.1401073956780172	0.349863915847036	0.872008899433094	1.5395468746844996	0.3131627059736256	0.7267465994878726	1.576755892823925	0.36057136797522576	0.7450736637818285	1.5847908153045447	0.33025753738012587	0.9649943454207606	1.6136377481696833	0.20933546298593775	0.6085081251573687	0.6580349047623494	0.1553178346671679	0.7830451184335205	1.116503300882399	0.15183818492114803	0.8966176043696632	1.5516875527315757	0.16785819207919814	0.7318446717179651	1.5722117640303785	0.10960425171396554	0.7626332820768976	1.5651372789739395	0.1736099043110402	0.930861621674295	1.5901615404788458	0.31222136422784275	0.5335287389619777	0.17474557331843774	0.3193481635618657	0.4377311968867921	-0.047414962680402364	0.3084402277202954	0.37311089031589684	0.07772730811273348	0.44954004951079696	0.5310210270153132	0.24594733398159868	0.4891168093304523	0.6189317966996744	0.5215778208807675	0.48457193011437666	0.5280655751508169	0.7836441172036263	0.4099681261531783	0.5353642748559905	0.895218629781124	0.43095150353090594	0.5551315867009898	0.9141673046756298	0.47709388370605826	0.5830146492981231	0.9104180865044808	0.16298523316513816	0.6045072768712009	0.24219411529168283	0.12350983542072219	0.6066429982020568	0.5158266176560532	0.07716413937393156	0.6132425469507683	0.7612736897998857	0.09967162547735967	0.6087710759705228	0.8593866534191756	0.07677417837127604	0.6141056135200684	0.9090166916904683	0.05708661449575529	0.6018756753936626	0.8688271382989214
270	4.5	0.4029707873544077	0.5957766193959118	0.6715207951557233	0.3964153255411715	0.7920438283436334	1.1411275881231027	0.34983426861525735	0.8721633087399037	1.5400599703819686	0.31310066562556793	0.7267064033937618	1.5759883047575465	0.36105074551027966	0.7451204047693474	1.5847870559716815	0.3301477005765207	0.9650909834436581	1.6139259788787566	0.20944147282920117	0.6090616735963318	0.6592568254475517	0.15435338772650548	0.7880299469918842	1.1183825393607219	0.15183119853089258	0.896602220269004	1.551672128558042	0.16799224374502833	0.7323727325666699	1.5745718812541005	0.10959262158876647	0.7626108709012184	1.565122830563659	0.17398985553169236	0.9302586361988161	1.588558454095808	0.3122270029738378	0.5335322842832031	0.17475536950300663	0.31940212923465205	0.43762593688894647	-0.048564359718327184	0.30845693591220563	0.3729324895589178	0.07773777570900378	0.449540700466475	0.5309561646454466	0.2471208808131587	0.4886171784866543	0.6178243125419409	0.5205391230013829	0.48462885313339976	0.5281543722959984	0.7832699120063664	0.40919335887109204	0.5376807418872367	0.8964615628925968	0.431233161406834	0.5655872590457751	0.917619666361066	0.47518065991447006	0.5913916429923806	0.9120961991764851	0.163003825288187	0.6045030092901813	0.24263781704001436	0.12361712286216163	0.6062410109897681	0.5157966609154767	0.07342671286138437	0.613401622231847	0.7615401698748638	0.09854996321659333	0.6085658150516495	0.859334481483902	0.07646486403258032	0.6153790750924492	0.9131020292567006	0.05465257932113032	0.601376019278294	0.8728121572985843
271	4.516666666666667	0.4030071756772641	0.5957560295198818	0.6715376566022148	0.3961460115940635	0.7919128590183173	1.1420386711613395	0.3498423216083881	0.8720934450597939	1.5399701575059463	0.3130042840870126	0.7265056873862539	1.5750286063780568	0.3622832331265557	0.7452576436538513	1.584791759485216	0.3299888234803245	0.9655083427660511	1.6135641854439928	0.20967135368817294	0.6098551902619689	0.6608985335952332	0.154011883257864	0.7907295708636555	1.1203000358968782	0.15182615408228933	0.8966495793736939	1.5516741100107128	0.1682986262386477	0.7338026079951196	1.5775599493106809	0.1095898071171999	0.7626045619666101	1.565144496602269	0.17443663742501858	0.9300301079035461	1.5879681818864377	0.3122409859003916	0.5335373896304428	0.17474648980579255	0.31946856111963895	0.4374941140781879	-0.04942831088602357	0.3084722074680284	0.3727781892582479	0.07770302984038452	0.4495451788735155	0.5309422283029563	0.24803854094447692	0.4886819154589572	0.6179186748969544	0.5192432129967286	0.48471098587287864	0.5281003379347362	0.782672622264797	0.40974920003592274	0.542858874559603	0.8986111391401308	0.43235143562026446	0.5736458328772417	0.9212076197038636	0.47425693985171197	0.5976254152055325	0.9140582328164392	0.16301912874991487	0.6044657092843613	0.24371242047012426	0.12370083450821473	0.6059717723642217	0.5157759713211735	0.06983657752567395	0.6139053124693349	0.7619019612043179	0.09712893716058608	0.6085722172332784	0.8593423196431418	0.07608621789639368	0.6157788615006319	0.9163066269684962	0.05273396759428867	0.6000181657561878	0.8761854016072134
